<mxfile host="app.diagrams.net" agent="Mozilla/5.0 (Macintosh; Intel Mac OS X 10_15_7) AppleWebKit/537.36 (KHTML, like Gecko) Chrome/128.0.0.0 Safari/537.36" version="24.8.3">
  <diagram name="Page-1" id="ajuDyQaS6Bo8kLFKWa0x">
    <mxGraphModel dx="1562" dy="857" grid="1" gridSize="10" guides="1" tooltips="1" connect="1" arrows="1" fold="1" page="1" pageScale="1" pageWidth="827" pageHeight="1169" math="0" shadow="0">
      <root>
        <mxCell id="0" />
        <mxCell id="1" parent="0" />
        <mxCell id="UOHpPc5HVUlSwhMWvnQl-4" style="edgeStyle=orthogonalEdgeStyle;rounded=0;orthogonalLoop=1;jettySize=auto;html=1;exitX=0.5;exitY=1;exitDx=0;exitDy=0;entryX=0.5;entryY=0;entryDx=0;entryDy=0;" edge="1" parent="1" source="UOHpPc5HVUlSwhMWvnQl-1" target="UOHpPc5HVUlSwhMWvnQl-3">
          <mxGeometry relative="1" as="geometry" />
        </mxCell>
        <mxCell id="UOHpPc5HVUlSwhMWvnQl-1" value="Start" style="ellipse;whiteSpace=wrap;html=1;fillColor=#e1d5e7;strokeColor=#9673a6;" vertex="1" parent="1">
          <mxGeometry x="350" y="40" width="140" height="40" as="geometry" />
        </mxCell>
        <mxCell id="UOHpPc5HVUlSwhMWvnQl-8" style="edgeStyle=orthogonalEdgeStyle;rounded=0;orthogonalLoop=1;jettySize=auto;html=1;exitX=0.5;exitY=1;exitDx=0;exitDy=0;entryX=0.5;entryY=0;entryDx=0;entryDy=0;" edge="1" parent="1" source="UOHpPc5HVUlSwhMWvnQl-3" target="UOHpPc5HVUlSwhMWvnQl-7">
          <mxGeometry relative="1" as="geometry" />
        </mxCell>
        <mxCell id="UOHpPc5HVUlSwhMWvnQl-3" value="Wake up in the morning" style="rounded=0;whiteSpace=wrap;html=1;fillColor=#dae8fc;strokeColor=#6c8ebf;" vertex="1" parent="1">
          <mxGeometry x="360" y="120" width="120" height="50" as="geometry" />
        </mxCell>
        <mxCell id="UOHpPc5HVUlSwhMWvnQl-9" style="edgeStyle=orthogonalEdgeStyle;rounded=0;orthogonalLoop=1;jettySize=auto;html=1;exitX=1;exitY=0.5;exitDx=0;exitDy=0;" edge="1" parent="1" source="UOHpPc5HVUlSwhMWvnQl-7">
          <mxGeometry relative="1" as="geometry">
            <mxPoint x="520" y="240" as="targetPoint" />
          </mxGeometry>
        </mxCell>
        <mxCell id="UOHpPc5HVUlSwhMWvnQl-15" style="edgeStyle=orthogonalEdgeStyle;rounded=0;orthogonalLoop=1;jettySize=auto;html=1;exitX=0.5;exitY=1;exitDx=0;exitDy=0;" edge="1" parent="1" source="UOHpPc5HVUlSwhMWvnQl-7">
          <mxGeometry relative="1" as="geometry">
            <mxPoint x="420" y="320" as="targetPoint" />
          </mxGeometry>
        </mxCell>
        <mxCell id="UOHpPc5HVUlSwhMWvnQl-7" value="Is it a holiday?" style="rhombus;whiteSpace=wrap;html=1;fillColor=#ffe6cc;strokeColor=#d79b00;" vertex="1" parent="1">
          <mxGeometry x="360" y="200" width="120" height="80" as="geometry" />
        </mxCell>
        <mxCell id="UOHpPc5HVUlSwhMWvnQl-27" style="edgeStyle=orthogonalEdgeStyle;rounded=0;orthogonalLoop=1;jettySize=auto;html=1;exitX=0.5;exitY=1;exitDx=0;exitDy=0;entryX=0.5;entryY=0;entryDx=0;entryDy=0;" edge="1" parent="1" source="UOHpPc5HVUlSwhMWvnQl-12" target="UOHpPc5HVUlSwhMWvnQl-26">
          <mxGeometry relative="1" as="geometry" />
        </mxCell>
        <mxCell id="UOHpPc5HVUlSwhMWvnQl-12" value="Get ready, have breakfast" style="whiteSpace=wrap;html=1;fillColor=#dae8fc;strokeColor=#6c8ebf;" vertex="1" parent="1">
          <mxGeometry x="520" y="210" width="120" height="60" as="geometry" />
        </mxCell>
        <mxCell id="UOHpPc5HVUlSwhMWvnQl-14" value="Yes" style="text;html=1;align=center;verticalAlign=middle;resizable=0;points=[];autosize=1;strokeColor=none;fillColor=none;" vertex="1" parent="1">
          <mxGeometry x="475" y="210" width="40" height="30" as="geometry" />
        </mxCell>
        <mxCell id="UOHpPc5HVUlSwhMWvnQl-16" value="No" style="text;html=1;align=center;verticalAlign=middle;resizable=0;points=[];autosize=1;strokeColor=none;fillColor=none;" vertex="1" parent="1">
          <mxGeometry x="419" y="280" width="40" height="30" as="geometry" />
        </mxCell>
        <mxCell id="UOHpPc5HVUlSwhMWvnQl-20" style="edgeStyle=orthogonalEdgeStyle;rounded=0;orthogonalLoop=1;jettySize=auto;html=1;exitX=0.5;exitY=1;exitDx=0;exitDy=0;entryX=0.5;entryY=0;entryDx=0;entryDy=0;" edge="1" parent="1" source="UOHpPc5HVUlSwhMWvnQl-17" target="UOHpPc5HVUlSwhMWvnQl-19">
          <mxGeometry relative="1" as="geometry" />
        </mxCell>
        <mxCell id="UOHpPc5HVUlSwhMWvnQl-17" value="Get ready, have a bath" style="rounded=0;whiteSpace=wrap;html=1;fillColor=#dae8fc;strokeColor=#6c8ebf;" vertex="1" parent="1">
          <mxGeometry x="360" y="320" width="120" height="60" as="geometry" />
        </mxCell>
        <mxCell id="UOHpPc5HVUlSwhMWvnQl-22" style="edgeStyle=orthogonalEdgeStyle;rounded=0;orthogonalLoop=1;jettySize=auto;html=1;exitX=0.5;exitY=1;exitDx=0;exitDy=0;entryX=0.5;entryY=0;entryDx=0;entryDy=0;" edge="1" parent="1" source="UOHpPc5HVUlSwhMWvnQl-19" target="UOHpPc5HVUlSwhMWvnQl-21">
          <mxGeometry relative="1" as="geometry" />
        </mxCell>
        <mxCell id="UOHpPc5HVUlSwhMWvnQl-19" value="Change into school uniform" style="rounded=0;whiteSpace=wrap;html=1;fillColor=#dae8fc;strokeColor=#6c8ebf;" vertex="1" parent="1">
          <mxGeometry x="360" y="420" width="120" height="60" as="geometry" />
        </mxCell>
        <mxCell id="UOHpPc5HVUlSwhMWvnQl-24" style="edgeStyle=orthogonalEdgeStyle;rounded=0;orthogonalLoop=1;jettySize=auto;html=1;exitX=0.5;exitY=1;exitDx=0;exitDy=0;entryX=0.5;entryY=0;entryDx=0;entryDy=0;" edge="1" parent="1" source="UOHpPc5HVUlSwhMWvnQl-21">
          <mxGeometry relative="1" as="geometry">
            <mxPoint x="420" y="620" as="targetPoint" />
          </mxGeometry>
        </mxCell>
        <mxCell id="UOHpPc5HVUlSwhMWvnQl-21" value="Have breakfast" style="rounded=0;whiteSpace=wrap;html=1;fillColor=#dae8fc;strokeColor=#6c8ebf;" vertex="1" parent="1">
          <mxGeometry x="360" y="520" width="120" height="60" as="geometry" />
        </mxCell>
        <mxCell id="UOHpPc5HVUlSwhMWvnQl-25" value="Reach school" style="ellipse;whiteSpace=wrap;html=1;fillColor=#e1d5e7;strokeColor=#9673a6;" vertex="1" parent="1">
          <mxGeometry x="340" y="620" width="160" height="50" as="geometry" />
        </mxCell>
        <mxCell id="UOHpPc5HVUlSwhMWvnQl-26" value="Study" style="rounded=0;whiteSpace=wrap;html=1;fillColor=#dae8fc;strokeColor=#6c8ebf;" vertex="1" parent="1">
          <mxGeometry x="520" y="320" width="120" height="60" as="geometry" />
        </mxCell>
      </root>
    </mxGraphModel>
  </diagram>
</mxfile>
